<svg width="126" height="150" viewBox="0 0 126 150" fill="none" xmlns="http://www.w3.org/2000/svg">
<g filter="url(#filter0_d)">
<path d="M103 51.2222C103 73.9886 62 116 62 116C62 116 21 73.9886 21 51.2222C21 28.4558 39.3563 10 62 10C84.6437 10 103 28.4558 103 51.2222Z" fill="#FCFCFC"/>
</g>
<path d="M85.9093 42.4339C85.9093 37.9144 83.0483 33.0384 78.0591 29.056C73.323 25.2755 67.5066 23.0186 62.4997 23.0186C52.4945 23.0186 39.0901 32.6179 39.0901 42.4344C39.0901 45.5294 43.4181 51.4763 44.3377 52.7042C46.4517 55.7824 49.2969 61.1926 48.7234 63.0872C47.1048 68.4285 47.1 72.5053 48.7086 75.2034C50.0221 77.4073 51.9172 77.8312 52.1289 77.8721C52.218 77.8895 52.3076 77.8982 52.3982 77.8982H72.6007C72.6837 77.8982 72.7666 77.8909 72.8482 77.8765C73.0603 77.8389 74.9602 77.4453 76.2837 75.2646C77.9123 72.5819 77.9094 68.4849 76.276 63.0877C75.6973 61.1752 78.4872 55.8739 80.6617 52.7032C81.5823 51.4739 85.9093 45.5285 85.9093 42.4339ZM78.3299 51.0302C77.3216 52.4951 72.3523 60.0042 73.5409 63.9321C75.2358 69.5316 74.6698 72.3165 73.8965 73.6667C73.3573 74.608 72.6646 74.9211 72.4148 75.0074H52.5889C52.3629 74.9235 51.695 74.6114 51.1587 73.7125C50.3534 72.3608 49.7513 69.5673 51.4581 63.9326C52.6481 60.0047 47.6779 52.4951 46.6695 51.0302C46.6586 51.0138 46.6467 50.9979 46.6352 50.982C44.6896 48.3884 41.9501 44.0217 41.9501 42.4339C41.9501 34.4552 54.0106 25.9085 62.4992 25.9085C71.9099 25.9085 83.0483 34.8661 83.0483 42.4339C83.0483 44.0192 80.3089 48.3865 78.3633 50.982C78.3523 50.9974 78.3404 51.0138 78.3299 51.0302Z" fill="#080029"/>
<path d="M60.6137 68.0505H57.7532V71.9597H60.6137V68.0505Z" fill="#080029"/>
<path d="M67.2463 68.0505H64.3857V71.9597H67.2463V68.0505Z" fill="#080029"/>
<path d="M65.816 53.3415H59.1833V56.2318H65.816V53.3415Z" fill="#080029"/>
<path d="M65.816 59.2057H59.1833V62.0961H65.816V59.2057Z" fill="#080029"/>
<path d="M47.8193 43.3842L53.4814 49.1053L55.5041 47.0615L49.842 41.3404L47.8193 43.3842Z" fill="#080029"/>
<path d="M69.4979 47.0608L71.5203 49.1048L77.1832 43.3845L75.1608 41.3405L69.4979 47.0608Z" fill="#080029"/>
<path d="M68.9955 37.2113H56.0039V40.1016H68.9955V37.2113Z" fill="#080029"/>
<path d="M68.9955 31.4306H56.0039V34.321H68.9955V31.4306Z" fill="#080029"/>
<defs>
<filter id="filter0_d" x="0" y="0" width="126" height="150" filterUnits="userSpaceOnUse" color-interpolation-filters="sRGB">
<feFlood flood-opacity="0" result="BackgroundImageFix"/>
<feColorMatrix in="SourceAlpha" type="matrix" values="0 0 0 0 0 0 0 0 0 0 0 0 0 0 0 0 0 0 127 0"/>
<feOffset dx="1" dy="12"/>
<feGaussianBlur stdDeviation="11"/>
<feColorMatrix type="matrix" values="0 0 0 0 0 0 0 0 0 0 0 0 0 0 0 0 0 0 0.09 0"/>
<feBlend mode="normal" in2="BackgroundImageFix" result="effect1_dropShadow"/>
<feBlend mode="normal" in="SourceGraphic" in2="effect1_dropShadow" result="shape"/>
</filter>
</defs>
</svg>
