<svg width="128" height="150" viewBox="0 0 128 150" fill="none" xmlns="http://www.w3.org/2000/svg">
<g filter="url(#filter0_d)">
<path d="M105 51.2222C105 73.9886 63 116 63 116C63 116 21 73.9886 21 51.2222C21 28.4558 39.804 10 63 10C86.196 10 105 28.4558 105 51.2222Z" fill="#FCFCFC"/>
</g>
<g clip-path="url(#clip0)">
<path d="M87.9871 33.0771C86.6392 31.7227 84.8541 30.977 82.9605 30.977C81.0306 30.977 79.2216 31.7476 77.8662 33.1466L76.3342 34.728C72.407 32.0983 68.0307 30.7147 63.6087 30.7147C59.1863 30.7147 54.81 32.0983 50.8832 34.728L49.3508 33.1466C47.9953 31.7476 46.1859 30.9774 44.2564 30.9774C42.3633 30.9774 40.5782 31.7232 39.2303 33.078C36.4222 35.9004 36.3921 40.5241 39.1629 43.3849L41.4235 45.7184C40.0104 48.7224 39.2675 51.8279 39.2675 54.755C39.2675 65.1274 48.5946 71.5709 63.6091 71.5709C78.6232 71.5709 87.9503 65.1274 87.9503 54.755C87.9503 51.8283 87.207 48.7233 85.7934 45.7184L88.0549 43.3849C90.8253 40.5241 90.7952 35.9004 87.9871 33.0771ZM86.1604 41.4821L83.2292 44.5077C82.8218 44.9284 82.7292 45.569 83 46.0913C84.4982 48.9806 85.2899 51.9764 85.2899 54.7546C85.2899 65.1559 74.0896 68.8618 63.6083 68.8618C53.1265 68.8618 41.9262 65.1559 41.9262 54.7546C41.9262 51.9759 42.7179 48.9797 44.2156 46.0913C44.4865 45.569 44.3934 44.928 43.9865 44.5077L41.0556 41.4821C39.3145 39.6844 39.3336 36.7789 41.0977 35.0057C41.9448 34.1547 43.0663 33.6856 44.256 33.6856C45.4687 33.6856 46.6057 34.17 47.4576 35.049L49.7728 37.4385C50.2333 37.9139 50.9652 37.9757 51.4971 37.5857C55.2036 34.8625 59.3915 33.4233 63.6087 33.4233C67.825 33.4233 72.0129 34.8625 75.7199 37.5857C76.2514 37.9762 76.9841 37.9139 77.4446 37.4385L79.7598 35.049C80.6113 34.17 81.7482 33.6856 82.961 33.6856C84.1511 33.6856 85.2726 34.1547 86.1192 35.0052C87.8834 36.7794 87.902 39.6844 86.1604 41.4821Z" fill="#080029"/>
<path d="M46.7291 48.4543C44.1755 51.055 43.6844 54.7709 45.632 56.7541C47.5793 58.7382 51.2278 58.2375 53.7814 55.6367C56.3346 53.0364 56.8257 49.3206 54.8784 47.3369C52.9308 45.3537 49.2823 45.8539 46.7291 48.4543ZM49.8674 54.5849C48.5514 54.5849 47.4849 53.4987 47.4849 52.1584C47.4849 50.818 48.5514 49.7318 49.8674 49.7318C51.1834 49.7318 52.2499 50.818 52.2499 52.1584C52.2499 53.4987 51.1834 54.5849 49.8674 54.5849Z" fill="#080029"/>
<path d="M72.3389 47.3369C70.3908 49.3206 70.8828 53.0364 73.436 55.6368C75.9891 58.2375 79.638 58.7377 81.5853 56.7541C83.5334 54.7709 83.0414 51.055 80.4882 48.4543C77.935 45.8539 74.2857 45.3537 72.3389 47.3369ZM77.3499 54.5849C76.0339 54.5849 74.9674 53.4987 74.9674 52.1584C74.9674 50.818 76.0339 49.7318 77.3499 49.7318C78.666 49.7318 79.7325 50.818 79.7325 52.1584C79.7325 53.4987 78.6655 54.5849 77.3499 54.5849Z" fill="#080029"/>
<path d="M66.1005 57.5889C66.7029 57.4598 67.155 56.9167 67.155 56.2644C67.155 55.5163 66.5597 54.91 65.8252 54.91H61.3926C60.6581 54.91 60.0628 55.5163 60.0628 56.2644C60.0628 56.9163 60.515 57.4594 61.1169 57.5889L58.9596 59.7861C58.4401 60.3147 58.4401 61.1725 58.9596 61.7011C59.2193 61.9657 59.5597 62.098 59.8997 62.098C60.2397 62.098 60.5801 61.9657 60.8399 61.7011L63.6085 58.8814L66.3771 61.7011C66.6368 61.9657 66.9773 62.098 67.3172 62.098C67.6572 62.098 67.9976 61.9657 68.2574 61.7011C68.7769 61.1725 68.7769 60.3147 68.2574 59.7861L66.1005 57.5889Z" fill="#080029"/>
</g>
<defs>
<filter id="filter0_d" x="0" y="0" width="128" height="150" filterUnits="userSpaceOnUse" color-interpolation-filters="sRGB">
<feFlood flood-opacity="0" result="BackgroundImageFix"/>
<feColorMatrix in="SourceAlpha" type="matrix" values="0 0 0 0 0 0 0 0 0 0 0 0 0 0 0 0 0 0 127 0"/>
<feOffset dx="1" dy="12"/>
<feGaussianBlur stdDeviation="11"/>
<feColorMatrix type="matrix" values="0 0 0 0 0 0 0 0 0 0 0 0 0 0 0 0 0 0 0.09 0"/>
<feBlend mode="normal" in2="BackgroundImageFix" result="effect1_dropShadow"/>
<feBlend mode="normal" in="SourceGraphic" in2="effect1_dropShadow" result="shape"/>
</filter>
<clipPath id="clip0">
<rect width="53.5652" height="41.6854" fill="white" transform="translate(36.826 30.2472)"/>
</clipPath>
</defs>
</svg>
